<?xml version="1.0" encoding="utf-8"?>
<!-- Generator: Adobe Illustrator 25.2.0, SVG Export Plug-In . SVG Version: 6.00 Build 0)  -->
<svg version="1.1" id="Layer_1" xmlns="http://www.w3.org/2000/svg" xmlns:xlink="http://www.w3.org/1999/xlink" x="0px" y="0px"
	 viewBox="0 0 2300 2300" style="enable-background:new 0 0 2300 2300;" xml:space="preserve">
<style type="text/css">
	.st0{fill:url(#SVGID_1_);}
	.st1{fill:url(#SVGID_2_);}
	.st2{fill:url(#SVGID_3_);}
	.st3{fill:url(#SVGID_4_);}
</style>
<image style="display:none;overflow:visible;" width="342" height="327" xlink:href="../../../../1111.jpg"  transform="matrix(6.7251 0 0 6.7251 0 50.4386)">
</image>
<radialGradient id="SVGID_1_" cx="440.1251" cy="984.118" r="774.5035" fx="-136.3645" fy="682.8619" gradientUnits="userSpaceOnUse">
	<stop  offset="0.327" style="stop-color:#00B7B0"/>
	<stop  offset="0.9556" style="stop-color:#0084C3"/>
</radialGradient>
<path class="st0" d="M238,388.4c4.2,3,7,4.8,9.5,6.8c94.7,76.3,189.2,152.7,280.1,233.4c30.8,27.3,59.5,56.8,89.1,85.5
	c133.1,129.2,265,259.6,395.5,391.5c12.2,12.4,24.5,24.8,36.6,37.2c2.4,2.4,4.6,5.1,7.4,8.3c-2.5,2.8-4.5,5.1-6.7,7.2
	c-46.9,43.9-93.3,88.4-140.9,131.6c-60.2,54.7-121.2,108.6-182.3,162.2c-36.9,32.3-75,63.3-115.1,91.6c-6.1,4.3-12.4,8.3-18.6,12.4
	c-3,1.5-3.4,1.8-1.9-1.7c1.5-2.5,2.8-5.1,4.4-7.5c22.4-33.4,47.7-64.7,73.4-95.7c80.3-97.1,164.7-190.7,248.5-284.8
	c13.7-15.4,14.1-12.4-1-27.1c-129.8-127.2-257-257-379.8-391c-99.3-108.3-195.6-219.1-283.5-337c-4.5-6.1-8.9-12.3-13.3-18.5
	C239.1,392.2,239,391.2,238,388.4z"/>
<radialGradient id="SVGID_2_" cx="601.27" cy="1927.4792" r="1094.9149" gradientUnits="userSpaceOnUse">
	<stop  offset="0.2442" style="stop-color:#00B8AE"/>
	<stop  offset="0.5277" style="stop-color:#00AAB7"/>
	<stop  offset="1" style="stop-color:#008ACB"/>
</radialGradient>
<path class="st1" d="M425.9,2025.9c1.9-2.7,3.6-5.5,5.6-8.1c22.8-28.7,45.3-57.8,68.7-86.1c72.2-87,148-170.9,224.3-254.2
	c105.3-114.9,213.1-227.2,322.9-337.7c35.9-36.2,71.8-72.3,107.8-108.5c3.3-3.3,7-6.2,11.1-9.9c3.1,2.7,5.8,4.7,8.1,7.1
	c116.6,118.6,229.3,240.7,333.6,370.4c19.8,24.6,38.5,50.2,57.6,75.4c1.9,2.4,3.3,5.2,5.3,8.4c-4.6,1.4-6.8-1.1-9.2-2.9
	c-25.2-18.6-50.8-36.7-75.4-56.1c-68.9-54.4-135.1-111.8-201.4-169.2c-34-29.5-67.8-59-101.8-88.5c-7.7-6.7-8.4-6.7-15.6,0.2
	c-57.3,54.1-114.2,108.7-172,162.3c-87.6,81.1-175.4,161.9-263.8,242.1c-53.9,48.9-108.9,96.7-164,144.3
	c-42.4,36.7-85.4,72.5-130.6,105.7c-3.2,2.3-6.5,4.5-9.7,6.8C427,2026.9,426.5,2026.4,425.9,2025.9z"/>
<radialGradient id="SVGID_3_" cx="1219.5129" cy="1240.5726" r="893.116" gradientUnits="userSpaceOnUse">
	<stop  offset="0.1302" style="stop-color:#58C4C1"/>
	<stop  offset="0.7078" style="stop-color:#1B9ABF"/>
	<stop  offset="0.9501" style="stop-color:#0088BE"/>
</radialGradient>
<path class="st2" d="M1729.2,743.2c-6,8.8-10,16.1-16.6,24.5c-27.5,35.6-54.6,71.4-83.1,106.2c-73.1,89.5-148.7,176.9-225.4,263.4
	c-0.6,0.7-1.3,1.4-1.9,2.2c-5.4,6.4-5.4,7.2,0.6,13.3c17.8,18.1,35.6,36,53.4,54.1c140.5,143.3,278.7,288.9,412.4,438.7
	c58.2,65.2,115.6,131.1,169,200.3c8.3,10.8,16.3,21.8,24.4,32.8c1.3,1.7,2.3,3.7,2.5,6.7c-3-2-6-4-8.9-6.1
	c-46.1-34.1-90.3-70.5-133.9-107.8c-111.7-95.4-219.8-194.9-326.8-295.6c-94.8-89.2-188.1-179.8-280.2-271.7
	c-15-15-29.9-30.1-44.8-45.2c-2.2-2.2-4.1-4.7-6.8-7.7c2.3-2.6,4.2-5.1,6.4-7.2c50.7-48.2,100.7-97.2,152.3-144.4
	c58.6-53.6,118.1-106.3,178.3-158.1c37.9-32.6,77.8-62.8,116.9-94c3.6-2.9,5.1-3.8,8.9-6.5c3.7-2.5,4.6-1.8,4.6-1.8
	S1731.1,739.5,1729.2,743.2z"/>
<radialGradient id="SVGID_4_" cx="1362.0938" cy="888.2993" r="832.2886" fx="1162.688" fy="686.0698" gradientUnits="userSpaceOnUse">
	<stop  offset="0.1302" style="stop-color:#6BC6C4"/>
	<stop  offset="0.6122" style="stop-color:#2EA0BD"/>
	<stop  offset="0.9556" style="stop-color:#0084B8"/>
</radialGradient>
<path class="st3" d="M1891.6,292.7c-27.4,36.7-139.4,167.4-213.7,250.3c-164,182.9-333.2,360.7-512.2,530.2
	c-3.7-3.3-6.6-5.7-9.2-8.3c-49.2-47.6-95.2-98.1-140.7-149.2c-72.8-81.8-143.8-165.2-211.8-251.1c-11.8-14.9-23.2-30.1-34.7-45.2
	c-2.4-3.2-4.5-6.6-6.7-9.9c0.5-0.6,1-1.1,1.5-1.7c3,1.9,6.2,3.6,9,5.7c42.1,31.9,84.7,63.2,126.1,96.1
	c78.3,62.3,154.2,127.4,228.2,194.8c9.1,8.3,18,16.9,27,25.4c9.6,9.1,9.5,9.1,18.8,0.1c50.4-49,100.4-98.4,151.2-146.9
	c124.7-119.2,252.2-235.4,384.3-346.5c58.6-49.3,118.8-96.7,178.3-144.9C1896.4,284.4,1894.9,288.2,1891.6,292.7z"/>
</svg>
