<?xml version="1.0" encoding="utf-8"?>
<!-- Generator: Adobe Illustrator 25.2.0, SVG Export Plug-In . SVG Version: 6.00 Build 0)  -->
<svg version="1.1" id="Layer_1" xmlns="http://www.w3.org/2000/svg" xmlns:xlink="http://www.w3.org/1999/xlink" x="0px" y="0px"
	 viewBox="0 0 1922.6 1831.4" style="enable-background:new 0 0 1922.6 1831.4;" xml:space="preserve">
<style type="text/css">
	.st0{fill:url(#SVGID_1_);}
	.st1{fill:url(#SVGID_2_);}
	.st2{fill:url(#SVGID_3_);}
	.st3{fill:url(#SVGID_4_);}
</style>
<image style="display:none;overflow:visible;" width="342" height="327" xlink:href="../../../../1111.jpg"  transform="matrix(5.6006 0 0 5.6006 3 0)">
</image>
<radialGradient id="SVGID_1_" cx="550.415" cy="340.5084" r="652.216" fx="64.9467" fy="86.8211" gradientTransform="matrix(1 0 0 -1 -186.98 1116.1799)" gradientUnits="userSpaceOnUse">
	<stop  offset="0.33" style="stop-color:#FF4177"/>
	<stop  offset="0.96" style="stop-color:#E40100"/>
</radialGradient>
<path class="st0" d="M193.3,274c3.5,2.5,5.9,4,8,5.8C281,344,360.6,408.4,437.2,476.4c25.9,23,50.1,47.8,75,72
	C624.3,657.2,735.3,767,845.3,878c10.3,10.4,20.6,20.9,30.8,31.4c2,2.1,3.8,4.3,6.3,7c-2.1,2.3-3.8,4.3-5.7,6.1
	c-39.5,37-78.6,74.4-118.6,110.8c-50.7,46-101.9,91.6-153.6,136.6c-31.1,27.2-63.2,53.3-96.9,77.1c-5.1,3.6-10.4,7-15.7,10.4
	c-2.5,1.2-2.9,1.5-1.6-1.4c1.2-2.1,2.3-4.3,3.7-6.3c18.9-28.2,40.2-54.5,61.8-80.6c67.7-81.8,138.7-160.6,209.3-239.8
	c11.6-13,11.8-10.5-0.8-22.9C654.9,799.3,547.9,690,444.4,577.2C360.8,486,279.7,392.7,205.7,293.4c-3.8-5.1-7.5-10.4-11.2-15.6
	C194.1,277.2,194.1,276.4,193.3,274z"/>
<radialGradient id="SVGID_2_" cx="686.111" cy="-453.8997" r="922.032" gradientTransform="matrix(1 0 0 -1 -186.98 1116.1799)" gradientUnits="userSpaceOnUse">
	<stop  offset="0.24" style="stop-color:#D5002E"/>
	<stop  offset="0.53" style="stop-color:#DE0003"/>
	<stop  offset="1" style="stop-color:#E40000"/>
</radialGradient>
<path class="st1" d="M351.5,1652.9c1.6-2.3,3-4.7,4.7-6.8c19.2-24.2,38.1-48.7,57.9-72.5c60.8-73.2,124.6-143.9,188.9-214.1
	c88.6-96.7,179.3-191.5,272-284.4c30.3-30.4,60.5-60.9,90.8-91.3c2.8-2.8,5.9-5.2,9.4-8.3c2.6,2.2,4.8,4,6.8,6
	c98.2,99.9,193.1,202.7,280.9,311.9c16.7,20.8,32.4,42.3,48.5,63.5c1.6,2.1,2.8,4.4,4.5,7.1c-3.8,1.2-5.7-1-7.7-2.4
	c-21.2-15.7-42.8-30.9-63.5-47.2c-58-45.8-113.8-94.1-169.6-142.5c-28.6-24.8-57.2-49.7-85.7-74.5c-6.5-5.6-7-5.6-13.2,0.2
	c-48.3,45.6-96.2,91.5-144.9,136.7c-73.7,68.3-147.8,136.2-222.1,203.9c-45.4,41.2-91.7,81.4-138.1,121.5c-35.7,30.9-72,61.1-110,89
	c-2.7,2-5.4,3.8-8.2,5.7L351.5,1652.9z"/>
<radialGradient id="SVGID_3_" cx="1206.735" cy="124.5485" r="752.096" gradientTransform="matrix(1 0 0 -1 -186.98 1116.1799)" gradientUnits="userSpaceOnUse">
	<stop  offset="0.13" style="stop-color:#FF3565"/>
	<stop  offset="0.71" style="stop-color:#FF0213"/>
	<stop  offset="0.95" style="stop-color:#DE0300"/>
</radialGradient>
<path class="st2" d="M1448.9,572.8c-5.1,7.4-8.5,13.6-13.9,20.7c-23.1,29.9-46,60.1-69.9,89.4c-61.6,75.4-125.2,149-189.8,221.8
	c-0.5,0.6-1.1,1.2-1.6,1.8c-4.5,5.4-4.6,6.1,0.5,11.2c15,15.2,30,30.3,44.9,45.5c118.4,120.7,234.7,243.3,347.3,369.4
	c49,54.9,97.3,110.4,142.3,168.7c7,9.1,13.7,18.4,20.5,27.6c1.3,1.6,2,3.6,2.1,5.6c-2.5-1.7-5.1-3.3-7.5-5.2
	c-38.8-28.7-76-59.4-112.7-90.8c-94.1-80.4-185.1-164.1-275.2-248.9c-79.8-75.1-158.5-151.4-236-228.8
	c-12.6-12.6-25.2-25.4-37.7-38.1c-1.8-1.9-3.5-3.9-5.8-6.5c2-2.2,3.5-4.3,5.4-6c42.7-40.6,84.8-81.8,128.3-121.6
	c49.4-45.2,99.4-89.5,150.2-133.2c31.9-27.4,65.5-52.9,98.4-79.2c3.1-2.4,4.3-3.2,7.5-5.5c3.1-2.1,3.9-1.5,3.9-1.5
	S1450.6,569.7,1448.9,572.8z"/>
<radialGradient id="SVGID_4_" cx="1326.807" cy="421.1964" r="700.872" fx="1158.8856" fy="250.8986" gradientTransform="matrix(1 0 0 -1 -186.98 1116.1799)" gradientUnits="userSpaceOnUse">
	<stop  offset="0.13" style="stop-color:#FF5077"/>
	<stop  offset="0.61" style="stop-color:#FF0E1E"/>
	<stop  offset="0.96" style="stop-color:#DD0100"/>
</radialGradient>
<path class="st3" d="M1585.7,193.4c-23.1,30.9-117.4,141-180,210.7c-138.1,154-280.6,303.8-431.4,446.5c-3.1-2.8-5.5-4.8-7.8-7
	C925.1,803.5,886.3,761,848,718c-61.3-68.8-121-139-178.3-211.4c-9.8-12.5-19.4-25.3-29.1-38.1c-2-2.7-3.8-5.6-5.6-8.4l1.2-1.4
	c2.6,1.6,5.2,3,7.6,4.8c35.4,26.9,71.4,53.2,106.2,80.9c66,52.4,130,107.1,192.2,164c7.7,7,15.2,14.2,22.7,21.4
	c8.1,7.7,8,7.6,15.8,0.1c42.4-41.3,84.5-82.8,127.3-123.7c105-100.4,212.4-198.2,323.6-291.8c49.3-41.5,100-81.4,150.2-122
	C1589.8,186.5,1588.5,189.7,1585.7,193.4z"/>
</svg>
